<svg aria-hidden="true" style="position: absolute; width: 0; height: 0; overflow: hidden;" version="1.1" xmlns="http://www.w3.org/2000/svg" xmlns:xlink="http://www.w3.org/1999/xlink">
<defs>
<symbol id="icon-burger" viewBox="0 0 32 32">
<path stroke-linejoin="miter" stroke-linecap="round" stroke-miterlimit="4" stroke-width="2" d="M6 10h20M6 16h20M6 22h20"></path>
</symbol>
<symbol id="icon-btn-chevron-right" viewBox="0 0 32 32">
<path fill="transparent" stroke-linejoin="round" stroke-linecap="round" stroke-miterlimit="4" stroke-width="5.3333" d="M10.667 5.333l13.2 10.667-13.2 10.667"></path>
</symbol>
<symbol id="icon-cow" viewBox="0 0 32 32">
<path d="M6.169 0.192c-0.262 0.226-1.008 1.781-1.276 2.631-0.318 1.052-0.427 1.84-0.384 2.93 0.058 1.556 0.449 2.736 1.31 3.968 0.225 0.324 0.406 0.601 0.406 0.624 0 0.015-0.138 0.030-0.311 0.030-0.747 0-2.144 0.248-3.215 0.571-1.7 0.512-2.7 1.405-2.7 2.405 0 0.354 0.318 0.955 0.659 1.262 0.659 0.595 2.1 1.158 3.649 1.428 0.536 0.098 2.129 0.263 2.484 0.27 0.065 0 0.087 0.347 0.087 1.481 0 0.977 0.036 1.736 0.108 2.202 0.26 1.668 1.071 3.434 2.142 4.682l0.37 0.428-0.246 0.398c-0.362 0.564-0.5 0.992-0.542 1.63-0.109 1.533 0.846 2.893 2.693 3.848 3.517 1.826 8.984 1.112 11.033-1.443 0.999-1.248 1.115-2.676 0.325-3.968l-0.246-0.398 0.442-0.533c0.826-0.992 1.361-1.984 1.766-3.239 0.34-1.067 0.471-2.097 0.471-3.727 0-0.744 0.021-1.36 0.058-1.36 0.333-0.009 1.933-0.18 2.44-0.271 1.556-0.27 2.969-0.827 3.649-1.428 0.34-0.308 0.659-0.909 0.659-1.262 0-1.113-1.129-2.014-3.229-2.556-0.687-0.18-1.983-0.398-2.613-0.436l-0.297-0.023 0.326-0.451c0.405-0.548 0.912-1.616 1.108-2.315 0.55-2.021 0.21-4.373-0.97-6.62-0.493-0.932-0.833-1.15-1.231-0.783-0.152 0.144-0.218 0.339-0.362 1.045q-0.674 3.371-2.498 5.342l-0.536 0.587h-11.453l-0.478-0.518c-1.187-1.308-2.049-3.156-2.498-5.411-0.145-0.707-0.21-0.901-0.362-1.044-0.239-0.218-0.471-0.211-0.738 0.022zM7.094 4.649c0.384 0.841 0.862 1.63 1.426 2.359l0.449 0.579-0.47 0.353c-0.442 0.338-0.854 0.82-1.173 1.369l-0.137 0.247-0.348-0.474c-1.188-1.637-1.484-3.644-0.854-5.726 0.304-1.006 0.297-0.999 0.572-0.127 0.131 0.42 0.377 1.060 0.536 1.42zM25.939 3.063c0.262 0.73 0.414 1.573 0.414 2.451 0 0.029-0 0.057-0 0.086l0-0.004c0 1.367-0.362 2.524-1.122 3.562l-0.34 0.466-0.253-0.428c-0.329-0.555-0.753-1.018-1.254-1.381l-0.013-0.009c-0.196-0.127-0.347-0.255-0.347-0.27 0-0.022 0.137-0.196 0.311-0.383 0.804-0.894 1.665-2.502 2.092-3.885 0.13-0.428 0.26-0.782 0.282-0.782s0.131 0.264 0.231 0.58zM22.24 8.556c0.804 0.338 1.571 1.307 1.694 2.126 0.065 0.451 0.217 0.737 0.412 0.782 0.087 0.014 0.688 0.067 1.332 0.112 2.287 0.151 4.090 0.639 4.858 1.308 0.355 0.316 0.318 0.579-0.108 0.902-0.854 0.646-2.7 1.134-4.583 1.218-1.245 0.052-1.506 0.089-1.673 0.262-0.123 0.128-0.137 0.263-0.137 1.623 0 1.842-0.094 2.901-0.326 3.757-0.325 1.164-0.97 2.405-1.723 3.284l-0.311 0.361-0.644-0.384c-0.687-0.426-1.485-0.76-2.335-0.958l-0.054-0.011c-2.744-0.654-5.778-0.256-7.819 1.029l-0.471 0.3-0.297-0.353c-0.405-0.474-1.043-1.488-1.296-2.059-0.557-1.293-0.724-2.345-0.724-4.66 0-2.247 0.116-2.082-1.549-2.172-2.129-0.113-3.751-0.496-4.772-1.142-0.753-0.481-0.629-0.909 0.42-1.413 1.006-0.489 2.388-0.781 4.308-0.901 1.492-0.098 1.527-0.121 1.665-0.842 0.203-1.090 1.006-1.991 2.020-2.277 0.253-0.075 1.672-0.090 6.016-0.083l5.684 0.015zM18.171 24.112c1.774 0.436 3.099 1.247 3.671 2.254 0.138 0.233 0.196 0.474 0.224 0.842 0.029 0.458 0.008 0.571-0.166 0.947-0.804 1.707-3.757 2.833-6.762 2.578-3.612-0.3-5.988-2.315-5.053-4.291 0.507-1.068 2.222-2.089 4.032-2.39 0.297-0.044 0.594-0.098 0.652-0.113s0.71-0.015 1.449 0c1.005 0.023 1.491 0.068 1.954 0.173z"></path>
<path d="M10.99 12.321c-0.449 0.151-0.753 0.346-1.158 0.751-0.356 0.338-0.384 0.737-0.087 0.978 0.276 0.225 0.536 0.196 0.868-0.098 0.42-0.369 0.747-0.519 1.152-0.519 0.405-0.007 0.716 0.135 1.15 0.519 0.333 0.293 0.594 0.323 0.869 0.098 0.145-0.121 0.188-0.219 0.188-0.444 0-0.232-0.051-0.338-0.305-0.593-0.716-0.722-1.78-0.999-2.678-0.692zM19.431 12.314c-0.462 0.172-1.057 0.563-1.295 0.856-0.232 0.285-0.24 0.609 0 0.85q0.356 0.382 0.876-0.045c0.854-0.707 1.492-0.729 2.281-0.076 0.203 0.173 0.434 0.308 0.507 0.308 0.355 0 0.644-0.316 0.644-0.692 0-0.24-0.601-0.796-1.144-1.060-0.601-0.293-1.317-0.346-1.868-0.142zM12.040 26.224c-0.21 0.203-0.283 0.496-0.174 0.729 0.080 0.187 0.203 0.263 0.702 0.398 0.225 0.060 0.319 0.135 0.398 0.323 0.101 0.249 0.109 0.249 0.667 0.271l0.557 0.022v-0.211c-0.007-0.3-0.174-0.736-0.391-1.036-0.253-0.347-0.695-0.572-1.195-0.617-0.34-0.030-0.427-0.015-0.564 0.121zM18.954 26.171c-0.362 0.098-0.883 0.587-1.028 0.969-0.071 0.201-0.12 0.434-0.137 0.676l-0 0.008c-0.014 0.323 0.014 0.398 0.188 0.556 0.427 0.376 0.992 0.083 0.992-0.518 0-0.293 0.217-0.496 0.601-0.571 0.405-0.076 0.55-0.241 0.557-0.624 0-0.504-0.449-0.699-1.173-0.496z"></path>
</symbol>
<symbol id="icon-facebook" viewBox="0 0 14 32">
<path d="M13.514 15.334h-4.176v15.392h-6.33v-15.392h-3.008v-5.41h3.008v-3.501c0-2.504 1.184-6.424 6.384-6.424l4.688 0.019v5.251h-3.4c-0.56 0-1.344 0.282-1.344 1.475v3.184h4.73z"></path>
</symbol>
<symbol id="icon-ice-crema" viewBox="0 0 32 32">
<path d="M16.108 0.107c0.080 0.215 0.241 1.252 0.241 1.573 0 0.003 0 0.007 0 0.011 0 0.818-0.318 1.561-0.838 2.114l0.001-0.002c-0.449 0.482-0.898 0.749-1.975 1.185-1.198 0.489-1.694 0.783-2.256 1.339-0.569 0.569-0.904 1.191-1.024 1.922q-0.203 1.196 0.408 1.68l0.207 0.16-0.328 0.208c-0.662 0.436-1.867 1.46-2.075 1.774-0.402 0.603-0.362 1.164 0.093 1.393l0.214 0.107-0.241 0.228c-0.362 0.341-0.436 0.576-0.382 1.191 0.034 0.409 0.020 0.63-0.073 0.964-0.114 0.436-0.114 0.442 0.033 0.75 0.148 0.301 0.563 0.683 0.938 0.844 0.18 0.080 0.187 0.107 0.228 0.723 0.020 0.356 0.053 1.486 0.080 2.517 0.020 1.031 0.068 1.975 0.107 2.089 0.034 0.12 0.161 0.281 0.276 0.361 0.388 0.268 0.656 0.556 0.829 0.891 0.195 0.382 0.409 1.319 1.058 4.559l0.455 2.276 0.282 0.268c0.535 0.529 1.56 0.77 3.247 0.77 1.693 0 2.704-0.235 3.24-0.764l0.288-0.274 0.414-2.109c0.916-4.612 0.997-4.867 1.714-5.436 0.22-0.181 0.436-0.402 0.475-0.502 0.047-0.114 0.094-0.991 0.127-2.316 0.027-1.178 0.068-2.343 0.094-2.591l0.040-0.448 0.436-0.329c0.548-0.421 0.763-0.803 0.763-1.392-0.006-0.696-0.462-1.46-1.292-2.142l-0.396-0.321 0.195-0.276c0.81-1.117 0.301-2.664-1.205-3.694l-0.455-0.315 0.167-0.174c0.743-0.796 0.864-3.173 0.241-4.827-0.374-0.984-1.232-2.055-2.283-2.845-0.514-0.388-1.934-1.245-2.060-1.245-0.027 0-0.027 0.047-0.006 0.107zM18.036 2.444c0.356 0.348 0.783 0.823 0.951 1.064 0.997 1.393 1.252 3.14 0.649 4.426-0.241 0.522-0.964 1.298-1.634 1.76-1.024 0.71-3.327 1.902-4.933 2.557-2.584 1.052-4.084 1.252-4.258 0.563-0.068-0.261 0.127-0.468 0.951-1.018 0.742-0.508 4.076-2.986 4.136-3.086 0.020-0.027-0.321 0.127-0.749 0.341-1.452 0.737-2.142 0.596-2.108-0.428 0.020-0.743 0.556-1.587 1.298-2.068 0.188-0.12 0.771-0.388 1.307-0.603 1.76-0.709 2.296-1.071 2.892-1.961 0.356-0.529 0.743-1.507 0.77-1.922 0.007-0.147 0.034-0.261 0.053-0.261s0.322 0.288 0.676 0.636zM19.862 10.050c0.489 0.274 0.997 0.743 1.218 1.111 0.389 0.662 0.188 1.325-0.649 2.169-0.91 0.924-2.463 1.808-4.171 2.37-1.573 0.516-3.079 0.756-5.236 0.83l-1.339 0.047 0.871 0.053c1.124 0.074 3.3 0.007 4.143-0.127 2.243-0.356 4.151-1.065 5.516-2.042 0.308-0.221 0.629-0.402 0.716-0.402 0.221 0 1.185 0.924 1.38 1.312 0.107 0.221 0.133 0.382 0.114 0.596-0.1 0.891-1.186 1.366-3.803 1.68-3.2 0.382-7.384 0.007-9.172-0.816-0.844-0.388-0.984-0.61-0.77-1.198 0.067-0.188 0.080-0.409 0.053-0.724-0.034-0.415-0.027-0.468 0.12-0.622 0.335-0.362 0.898-0.569 2.96-1.092 0.723-0.187 1.707-0.482 2.175-0.656 1.138-0.415 3.274-1.493 4.264-2.156 0.931-0.616 1.065-0.643 1.607-0.334zM10.972 18.244c1.406 0.409 2.652 0.529 4.968 0.482 1.74-0.033 2.812-0.14 4.358-0.415 0.315-0.053 0.588-0.1 0.622-0.1 0.074 0 0.053 2.571-0.027 3.247-0.087 0.716-0.282 1.272-0.489 1.406-0.214 0.14-1.285 0.288-2.718 0.368-2.939 0.16-5.958 0-6.895-0.375-0.508-0.207-0.563-0.476-0.569-2.959 0-1.653 0.013-1.881 0.1-1.847 0.053 0.020 0.348 0.107 0.649 0.194zM12.558 23.934c0.482 0.060 1.004 0.12 1.164 0.14l0.289 0.034-0.255 0.281c-0.328 0.355-0.83 1.064-1.011 1.426-0.207 0.415-0.275 0.442-0.582 0.275l-0.261-0.148-0.147-0.91c-0.078-0.507-0.143-0.864-0.216-1.218l0.029 0.166c-0.060-0.173-0.121-0.173 0.99-0.046zM19.695 23.86c0 0.013-0.034 0.187-0.068 0.382-0.040 0.2-0.207 1.292-0.374 2.429-0.341 2.377-0.569 3.494-0.777 3.869-0.288 0.502-0.978 0.796-2.095 0.891-0.436 0.034-1.748-0.053-1.821-0.121-0.053-0.060 1.098-1.486 1.279-1.58 0.167-0.094 0.213-0.080 0.782 0.213 0.663 0.349 0.998 0.403 0.998 0.181s-0.174-0.436-0.603-0.729c-0.395-0.282-0.535-0.443-0.535-0.63 0-0.053 0.194-0.355 0.428-0.669s0.575-0.817 0.749-1.118l0.329-0.542 0.3 0.041c0.609 0.087 0.77 0.080 0.75-0.053-0.013-0.068-0.127-0.261-0.255-0.422-0.127-0.167-0.228-0.335-0.228-0.368 0-0.127 0.622-1.299 0.824-1.547 0.174-0.214 0.315-0.322 0.315-0.228zM15.511 24.396c0.334 0.221 1.593 1.313 1.673 1.446 0.034 0.060-1.258 2.082-1.513 2.37-0.027 0.034-0.167-0.033-0.308-0.14-0.312-0.234-0.691-0.498-1.079-0.751l-0.086-0.052-0.904-0.596 0.542-0.917c0.964-1.613 0.944-1.587 1.151-1.587 0.107 0 0.341 0.1 0.523 0.228zM18.048 24.636c-0.235 0.288-0.428 0.469-0.508 0.469-0.174 0-0.456-0.154-0.931-0.502l-0.396-0.288 0.791-0.047c0.349-0.013 0.666-0.034 0.981-0.065l-0.065 0.005c0.536-0.087 0.536-0.080 0.128 0.428zM12.987 27.857c0.616 0.241 1.66 0.81 1.962 1.065 0.214 0.173 0.214 0.187 0.127 0.401-0.143 0.283-0.281 0.517-0.431 0.742l0.016-0.026c-0.128 0.191-0.276 0.433-0.417 0.681l-0.032 0.062c-0.213 0.415-0.281 0.449-0.723 0.329-0.476-0.141-0.729-0.382-0.863-0.818-0.181-0.609-0.469-2.329-0.436-2.597 0.013-0.1 0.294-0.040 0.796 0.161z"></path>
</symbol>
<symbol id="icon-arrow" viewBox="0 0 109 32">
<path d="M108.175 17.218c0.833-0.833 0.833-2.184 0-3.017l-13.577-13.576c-0.833-0.833-2.184-0.833-3.017 0s-0.833 2.184 0 3.017l12.068 12.068-12.068 12.068c-0.833 0.833-0.833 2.184 0 3.017s2.184 0.833 3.017 0l13.577-13.576zM0 17.843h106.667v-4.267h-106.667v4.267z"
></path>
</symbol>
<symbol id="icon-menu-close" viewBox="0 0 32 32">
<path d="M27.984 0.496l-12.616 12.614-12.614-12.614c-0.283-0.26-0.662-0.419-1.078-0.419-0.882 0-1.597 0.715-1.597 1.597 0 0.416 0.159 0.795 0.42 1.079l-0.001-0.001 12.608 12.614-12.61 12.613c-0.307 0.291-0.498 0.703-0.498 1.158 0 0.881 0.714 1.595 1.595 1.595 0.232 0 0.452-0.049 0.651-0.138l-0.010 0.004c0.202-0.089 0.374-0.211 0.518-0.361l0.001-0.001 12.618-12.61 12.614 12.613c0.283 0.26 0.662 0.419 1.078 0.419 0.882 0 1.597-0.715 1.597-1.597 0-0.416-0.159-0.795-0.42-1.079l0.001 0.001-12.614-12.616 12.614-12.616c0.289-0.289 0.468-0.688 0.468-1.13 0-0.882-0.715-1.596-1.596-1.596-0.44 0-0.839 0.178-1.128 0.467l0-0z"></path>
</symbol>
<symbol id="icon-modal-close" viewBox="0 0 32 32">
<path d="M17.254 16l7.368-7.368c0.127-0.153 0.204-0.351 0.204-0.568 0-0.492-0.398-0.89-0.89-0.89-0.216 0-0.414 0.077-0.568 0.205l0.001-0.001-7.37 7.368-7.368-7.378c-0.162-0.161-0.385-0.261-0.631-0.261-0.493 0-0.893 0.4-0.893 0.893 0 0.247 0.1 0.47 0.262 0.632l7.378 7.368-7.38 7.368c-0.194 0.164-0.317 0.408-0.317 0.681 0 0.492 0.398 0.89 0.89 0.89 0.273 0 0.517-0.123 0.68-0.316l0.001-0.001 7.38-7.368 7.368 7.368c0.153 0.127 0.351 0.203 0.566 0.203 0.492 0 0.89-0.398 0.89-0.89 0-0.216-0.077-0.415-0.206-0.569l0.001 0.001z"></path>
</symbol>
<symbol id="icon-telegram" viewBox="0 0 43 32">
<path d="M16.073 21.001l-0.678 8.896c0.971 0 1.391-0.386 1.894-0.853l4.544-4.055 9.419 6.438c1.728 0.898 2.944 0.427 3.409-1.483l6.182-27.042c0.548-2.385-0.922-3.317-2.605-2.731l-36.339 12.983c-2.479 0.898-2.441 2.189-0.42 2.773l9.289 2.699 21.579-12.606c1.015-0.627 1.939-0.279 1.18 0.348z"></path>
</symbol>
<symbol id="icon-github" viewBox="0 0 32 32">
<path d="M15.852 0c-8.707 0-15.852 7.146-15.852 15.855 0 7.431 5.213 14.181 12.136 15.855v-5.245c-0.685 0.15-1.317 0.153-2.016-0.051-0.936-0.278-1.698-0.903-2.262-1.853-0.36-0.61-0.999-1.268-1.666-1.219l-0.163-1.853c1.44-0.121 2.686 0.879 3.426 2.122 0.328 0.552 0.707 0.876 1.192 1.019 0.468 0.138 0.972 0.072 1.558-0.135 0.148-1.176 0.685-1.617 1.093-2.235-4.13-0.616-5.775-2.808-6.427-4.537-0.866-2.296-0.403-5.164 1.128-6.978 0.030-0.034 0.084-0.128 0.062-0.192-0.701-2.12 0.153-3.874 0.185-4.059 0.808 0.239 0.941-0.243 3.518 1.324l0.445 0.268c0.185 0.111 0.128 0.047 0.313 0.034 0.993-0.28 2.137-0.45 3.317-0.468l0.011-0c1.207 0.018 2.365 0.192 3.467 0.503l-0.095-0.023 0.145 0.013c-0.013 0 0.039-0.008 0.125-0.061 3.219-1.949 3.102-1.312 3.966-1.593 0.030 0.185 0.876 1.971 0.18 4.062-0.093 0.288 2.791 2.931 1.192 7.17-0.653 1.73-2.299 3.921-6.427 4.537 0.529 0.808 1.164 1.236 1.162 2.9v6.548c6.922-1.672 12.135-8.424 12.135-15.855 0-8.707-7.144-15.855-15.85-15.855z"></path>
</symbol>
<symbol id="icon-weight" viewBox="0 0 32 32">
<path d="M14.178 0.547c-3.974 0.589-7.247 2.796-8.452 5.685-0.384 0.913-0.487 1.474-0.487 2.573 0.007 0.812 0.036 1.114 0.163 1.552 0.258 0.862 0.443 1.301 0.827 1.92l0.356 0.574-0.4 0.489c-3.154 3.924-3.501 9.444-0.871 13.793 0.982 1.631 2.586 3.235 4.151 4.169l0.466 0.273 12.743-0.108 0.302-0.165c1.057-0.596 2.548-1.926 3.384-3.004 1.208-1.57 2.063-3.472 2.412-5.546l0.010-0.074c0.118-0.74 0.118-2.933-0.007-3.63-0.377-2.148-1.182-3.988-2.452-5.62-0.244-0.309-0.436-0.568-0.436-0.589 0-0.014 0.133-0.237 0.288-0.489 0.362-0.575 0.687-1.316 0.864-1.962 0.199-0.719 0.199-2.516 0-3.235-0.709-2.551-2.836-4.679-5.843-5.851-0.843-0.331-2.283-0.683-3.214-0.797-0.864-0.101-2.999-0.080-3.804 0.043zM18.675 1.718c3.945 0.769 6.834 3.184 7.365 6.16 0.118 0.668 0.044 1.804-0.155 2.436-0.2 0.619-0.569 1.345-1.004 1.963-0.178 0.252-0.325 0.54-0.325 0.633s0.155 0.338 0.377 0.582c1.846 2.048 2.821 4.614 2.821 7.388-0.007 3.156-1.219 5.923-3.553 8.093-0.399 0.373-0.968 0.841-1.271 1.042l-0.554 0.373-12.211 0.051-0.473-0.302c-1.714-1.114-3.258-2.954-4.115-4.908-1.078-2.472-1.189-5.34-0.31-7.913 0.466-1.337 1.086-2.429 2.031-3.58 0.385-0.46 0.562-0.733 0.562-0.862 0-0.108-0.192-0.46-0.444-0.827-0.886-1.287-1.248-2.717-1.034-4.068 0.222-1.365 0.842-2.487 1.987-3.601 1.493-1.444 3.576-2.4 6.021-2.76 1.012-0.151 3.25-0.093 4.284 0.1z"></path>
<path d="M14.509 2.983c-3.028 0.496-5.4 2.178-6.175 4.385-0.178 0.495-0.207 0.69-0.207 1.401s0.029 0.907 0.207 1.402c0.11 0.316 0.317 0.755 0.458 0.978 0.384 0.618 0.554 0.64 1.316 0.18 1.094-0.675 2.368-1.19 3.727-1.474l0.077-0.014c0.916-0.187 2.674-0.259 3.671-0.144 1.558 0.18 3.25 0.74 4.602 1.538 0.384 0.223 0.776 0.411 0.871 0.411 0.562 0 1.278-1.618 1.278-2.876 0-2.796-2.674-5.189-6.463-5.786-0.805-0.129-2.587-0.129-3.362 0zM18.166 4.133c1.271 0.273 2.437 0.791 3.317 1.473 1.182 0.913 1.817 2.186 1.713 3.414-0.036 0.489-0.221 1.15-0.332 1.222-0.030 0.014-0.444-0.158-0.916-0.388-0.926-0.453-2.004-0.832-3.131-1.081l-0.097-0.018c-0.687-0.144-0.975-0.165-2.511-0.158-1.515 0-1.832 0.021-2.489 0.158-1.138 0.244-2.025 0.547-3.118 1.064-1.1 0.524-1.042 0.532-1.241-0.116-0.258-0.841-0.096-1.955 0.406-2.796 0.267-0.445 0.997-1.186 1.529-1.553 1.012-0.697 1.899-1.013 3.804-1.358 0.391-0.071 2.564 0.029 3.066 0.137zM16.963 13.404c-0.207 0.26-0.207 0.504 0.007 0.712 0.14 0.137 0.281 0.172 0.791 0.209 1.034 0.074 1.983 0.38 2.815 0.865l-0.031-0.017c0.606 0.359 1.529 1.228 1.943 1.854 0.613 0.898 1.034 2.185 1.034 3.133 0 0.331 0.030 0.431 0.185 0.575 0.236 0.237 0.547 0.237 0.776 0 0.163-0.165 0.169-0.208 0.125-0.913-0.207-3.478-3.184-6.382-6.744-6.576l-0.74-0.044z"></path>
</symbol>
</defs>
</svg>
