<svg xmlns="http://www.w3.org/2000/svg" width="32" height="29" fill="none" viewBox="0 0 32 29"><path fill="#f8d24e" d="M16.325 12.68c1.532-3.924-1.641-6.072-3.745-7.483-.402-.289-.805-.558-1.13-.805a3.75 3.75 0 0 1-1.236-1.762 3.55 3.55 0 0 1-.032-2.112.4.4 0 0 0-.001-.221.4.4 0 0 0-.123-.188.46.46 0 0 0-.443-.084 7.2 7.2 0 0 0-1.95 1.096 4.44 4.44 0 0 0-1.329 1.53 4.2 4.2 0 0 0-.478 1.927 5.2 5.2 0 0 0-1.041 1.028 3.62 3.62 0 0 0-.769 2.41 4.75 4.75 0 0 0-1.392 2.05 4.5 4.5 0 0 0-.14 2.431 1.3 1.3 0 0 0-.565.63c-.11.263-.125.553-.044.825s.255.51.494.68c.24.17.531.261.83.26h.029v2.23a.83.83 0 0 0 .265.605c.17.16.4.25.64.25h.704l1.146 9.372a.84.84 0 0 0 .295.542c.165.14.38.217.602.217h4.77a.94.94 0 0 0 .604-.218.84.84 0 0 0 .298-.54l1.146-9.373h.704c.24 0 .47-.09.64-.25a.83.83 0 0 0 .265-.604v-2.231h.028c.364 0 .713-.137.97-.38a1.26 1.26 0 0 0 .3-1.414 1.3 1.3 0 0 0-.3-.422zM5.999 5.56c.58 2.054 2.816 2.862 4.855 3.583a.46.46 0 0 0 .534-.054.394.394 0 0 0 .08-.5.4.4 0 0 0-.129-.135.5.5 0 0 0-.175-.07c-2.196-.786-4.268-1.518-4.425-3.616a3.34 3.34 0 0 1 .334-1.678 3.56 3.56 0 0 1 1.134-1.331q.46-.361.982-.638a4.7 4.7 0 0 0 0 .79c.046.6.22 1.187.512 1.724a4.6 4.6 0 0 0 1.185 1.398c.334.27.749.547 1.207.843 1.058.717 2.26 1.518 3.025 2.603.408.556.661 1.2.738 1.873a3.85 3.85 0 0 1-.3 1.978h-1.778c-3.664 0-7.875-.956-8.708-3.635a2.9 2.9 0 0 1 .004-1.685c.168-.55.495-1.046.945-1.43zm3.299 12.936 1.343 1.268-1.343 1.267-1.344-1.275zm3.08 3.328-1.11 1.047-1.343-1.267 1.343-1.264 1.167 1.097zm-3.08 2.907-1.344-1.268 1.344-1.267 1.343 1.267zm-.616-3.12L7.34 22.88 6.22 21.824l-.048-.38 1.167-1.096zM6.72 23.464l-.27.255-.068-.577zm-.14 1.298.76-.717 1.476 1.404a1 1 0 0 0 .028.084H6.671zm4.682-.717.76.717-.093.76H9.696zm.884-.326-.27-.255.343-.322zm.403-3.317-.672-.645.853-.804zm-1.291-1.222L9.98 17.98h2.55zm-3.922 0L6.06 17.98h2.55zm4.344 8.106H6.912a.03.03 0 0 1-.019-.01.03.03 0 0 1-.009-.017l-.113-.91h5.053l-.109.91a.03.03 0 0 1-.01.019.03.03 0 0 1-.022.008zm3.688-13.22h-1.4a.46.46 0 0 0-.336.105.42.42 0 0 0-.144.306.4.4 0 0 0 .144.306.44.44 0 0 0 .336.106h.5v2.231a.03.03 0 0 1-.011.019.03.03 0 0 1-.022.007H4.15a.03.03 0 0 1-.022-.007.03.03 0 0 1-.01-.019v-2.231h7.968a.45.45 0 0 0 .283-.134.4.4 0 0 0 .114-.278.4.4 0 0 0-.114-.278.45.45 0 0 0-.283-.134h-8.85a.53.53 0 0 1-.38-.121.47.47 0 0 1-.163-.347.45.45 0 0 1 .163-.348.5.5 0 0 1 .38-.12h.914a.45.45 0 0 0 .282-.135.4.4 0 0 0 .114-.278.4.4 0 0 0-.114-.278.45.45 0 0 0-.282-.133h-.805a3.84 3.84 0 0 1 .055-1.742c.152-.57.432-1.102.822-1.56.282.828 1.006 1.958 2.816 2.858 1.701.838 3.954 1.267 6.693 1.267h1.61a.53.53 0 0 1 .38.121.47.47 0 0 1 .163.348q0 .099-.043.19a.5.5 0 0 1-.12.157.5.5 0 0 1-.38.121z"/><mask id="a" width="18" height="8" x="13.204" y="20.365" fill="#000" maskUnits="userSpaceOnUse"><path fill="#fff" d="M13.204 20.365h18v8h-18z"/><path d="M20 23.36q-2.498 0-2.498 1.099 0 .591.496.915.503.318 1.467.317.971 0 1.891-.156l.04 1.757a9 9 0 0 1-2.31.28q-1.25 0-2.097-.196-.848-.19-1.328-.424a4 4 0 0 1-.848-.547q-.791-.668-.786-1.785 0-.69.273-1.249.503-1.02 1.752-1.495 1.25-.48 2.755-.48 1.506 0 2.856.335l-.14 1.79a8.3 8.3 0 0 0-1.522-.161m7.203.513q-.006-.525-.246-.742-.234-.217-.691-.217-.452 0-.731.273a1.17 1.17 0 0 0-.346.675zm2.186 3.034q-.345.263-1.232.458-.888.2-1.724.2-.83 0-1.411-.078a5.8 5.8 0 0 1-1.15-.278 3.6 3.6 0 0 1-.975-.52 2.4 2.4 0 0 1-.653-.82q-.25-.505-.25-1.21 0-.708.256-1.299t.663-.954q1.133-1.01 3.28-1.01 1.02 0 1.941.391.92.402 1.31 1.205.224.452.224.998l-.067.92-4.523-.022q.134.508.647.798.518.29 1.41.29.894 0 2.059-.485h.301z"/></mask><path fill="#f8d24e" d="m17.998 25.374-.312.478.007.004zm3.358.161.571-.012-.014-.662-.652.111zm.04 1.757.145.553.435-.115-.01-.45zm-4.407.084.128-.557h-.004zm-2.176-.97.37-.436zm-.786-1.785.571.002v-.003zm.273-1.25-.512-.252zm1.752-1.495.202.534h.002zm5.61-.145.57.045.038-.483-.47-.116zm-.139 1.79-.106.562.626.119.05-.636zm-1.522-.161v-.571c-.857 0-1.578.091-2.104.323a1.7 1.7 0 0 0-.694.521 1.34 1.34 0 0 0-.272.826h1.142c0-.067.016-.104.04-.136a.6.6 0 0 1 .244-.166c.306-.134.835-.226 1.644-.226zm-2.499 1.099h-.571a1.6 1.6 0 0 0 .755 1.393l.312-.479.312-.478a.46.46 0 0 1-.237-.436zm.496.915-.305.482c.466.296 1.082.407 1.772.407V25.12c-.596 0-.958-.102-1.161-.23zm1.467.317v.572q1.017 0 1.987-.165l-.096-.563-.095-.563q-.872.148-1.796.148zm1.891-.156-.57.013.038 1.757.571-.013.571-.013-.039-1.756zm.04 1.757-.146-.552a8.5 8.5 0 0 1-2.164.26v1.142q1.314.002 2.455-.297zm-2.31.28V27c-.807 0-1.46-.063-1.969-.18l-.128.556-.128.556c.62.144 1.366.21 2.225.21zm-2.097-.196.124-.558c-.545-.121-.938-.251-1.201-.38l-.25.514-.251.513c.377.184.868.337 1.453.468zm-1.328-.424.251-.513a3.5 3.5 0 0 1-.729-.47l-.37.436-.369.436q.429.363.967.624zm-.848-.547.37-.436c-.389-.328-.588-.757-.585-1.346l-.571-.003-.571-.002c-.005.898.32 1.66.989 2.224zm-.786-1.785h.571c0-.384.075-.713.215-.998l-.513-.25-.513-.252a3.4 3.4 0 0 0-.331 1.5zm.273-1.249.513.252c.26-.528.718-.938 1.441-1.213l-.202-.534-.203-.534c-.943.358-1.652.944-2.061 1.777zm1.752-1.495.204.534q1.138-.44 2.551-.442v-1.143q-1.6-.002-2.96.518zm2.755-.48v.572q1.442 0 2.719.318l.137-.555.137-.554a12.4 12.4 0 0 0-2.993-.352zm2.856.335-.57-.044-.139 1.79.57.045.569.044.14-1.79zm-.14 1.79.107-.56a9 9 0 0 0-1.63-.172v1.142q.603-.001 1.417.152zm5.68.352-.003.571.58.004-.006-.581zm-.246-.742-.388.419.005.004zm-1.422.056.395.412.005-.004zm-.346.675-.563-.093-.109.66.669.004zm4.2 3.045.345.456.205-.156.02-.257zm-1.232.458-.123-.558h-.004zm-4.284-.156-.195.537.005.001zm-.976-.52-.355.449.007.005zm-.653-.82-.512.254.001.002zm.67-3.463.38.427zm5.22-.619.229-.523-.006-.003zm1.31 1.205-.513.25.002.003zm.224.998.57.042.001-.021v-.02zm-.067.92-.003.572.534.002.039-.532zm-4.523-.022.002-.57-.745-.005.19.72zm.647.798-.281.497.002.001zm3.469-.195v-.572h-.114l-.105.044zm.301 0 .57.042.046-.614h-.616zm-2.292-1.618.57-.006c-.004-.413-.099-.856-.432-1.159l-.384.423-.383.423c-.007-.006.006.002.022.05a1 1 0 0 1 .036.275zm-.246-.742.389-.418c-.3-.279-.693-.37-1.08-.37v1.142c.222 0 .29.053.303.065zm-.691-.217v-.571c-.426 0-.821.133-1.13.436l.399.408.4.408c.062-.061.154-.11.33-.11zm-.731.273-.396-.412c-.28.27-.45.61-.513.994l.563.093.564.093a.6.6 0 0 1 .177-.356zm-.346.675-.003.571 2.014.011.003-.57.003-.572-2.014-.011zm4.2 3.045-.345-.455c-.125.095-.43.227-1.01.355l.123.558.122.558c.603-.133 1.12-.306 1.455-.56zm-1.232.458-.127-.557a7.2 7.2 0 0 1-1.597.186v1.142q.905 0 1.85-.214zm-1.724.2v-.57q-.806-.001-1.335-.074l-.076.567-.076.566q.631.084 1.487.083zm-1.411-.078.076-.566a5.2 5.2 0 0 1-1.035-.251l-.19.539-.19.538q.622.221 1.263.306zm-1.15-.278.196-.537a3 3 0 0 1-.824-.435l-.347.453-.348.453c.325.25.704.448 1.13.602zm-.975-.52.354-.447a1.8 1.8 0 0 1-.496-.628l-.51.256-.512.255c.201.403.47.744.81 1.013zm-.653-.82.512-.252c-.12-.243-.192-.556-.192-.957h-1.142c0 .535.096 1.03.31 1.463zm-.25-1.21h.57c0-.401.073-.756.21-1.072l-.524-.227-.524-.227a3.8 3.8 0 0 0-.304 1.527zm.256-1.299.524.227c.144-.331.32-.577.52-.754l-.38-.427-.38-.426c-.344.306-.61.696-.808 1.153zm.663-.954.38.427c.614-.548 1.55-.865 2.9-.865v-1.143c-1.514 0-2.764.356-3.66 1.155zm3.28-1.01v.572q.908 0 1.718.345l.223-.526.223-.526a5.5 5.5 0 0 0-2.164-.436zm1.941.391-.228.524c.505.22.832.533 1.025.93l.514-.25.514-.249c-.328-.673-.875-1.164-1.596-1.478zm1.31 1.205-.511.253c.107.216.164.461.164.745h1.142c0-.444-.091-.865-.282-1.251zm.224.998-.57-.041-.066.92.57.042.569.041.067-.92zm-.067.92.003-.57-4.524-.023-.002.571-.003.571 4.523.023zm-4.523-.022-.553.146c.134.506.46.89.919 1.15l.28-.498.282-.497c-.226-.128-.331-.276-.376-.446zm.647.798-.28.498c.464.26 1.043.363 1.69.363v-1.142c-.542 0-.903-.09-1.132-.218zm1.41.29v.571c.695 0 1.458-.188 2.278-.53l-.22-.526-.219-.528c-.734.306-1.343.442-1.838.442zm2.059-.485v.57h.301V24.92h-.301zm.301 0-.57-.043-.105 1.417.57.042.569.043.106-1.417z" mask="url(#a)"/></svg>